<?xml version="1.0" encoding="UTF-8" standalone="no"?>
<svg
   xmlns:dc="http://purl.org/dc/elements/1.1/"
   xmlns:cc="http://creativecommons.org/ns#"
   xmlns:rdf="http://www.w3.org/1999/02/22-rdf-syntax-ns#"
   xmlns:svg="http://www.w3.org/2000/svg"
   xmlns="http://www.w3.org/2000/svg"
   xmlns:sodipodi="http://sodipodi.sourceforge.net/DTD/sodipodi-0.dtd"
   xmlns:inkscape="http://www.inkscape.org/namespaces/inkscape"
   width="100%"
   height="100%"
   viewBox="0 0 1125 1500"
   version="1.1"
   xml:space="preserve"
   style="fill-rule:evenodd;clip-rule:evenodd;stroke-linecap:round;stroke-linejoin:round;stroke-miterlimit:1.5;"
   id="svg26"
   sodipodi:docname="patate_face.svg"
   inkscape:version="1.0.2-2 (e86c870879, 2021-01-15)"><metadata
     id="metadata32"><rdf:RDF><cc:Work
         rdf:about=""><dc:format>image/svg+xml</dc:format><dc:type
           rdf:resource="http://purl.org/dc/dcmitype/StillImage" /></cc:Work></rdf:RDF></metadata><defs
     id="defs30"><clipPath
       id="_clip1"><path
         d="m 657.38,22.306 c 298.795,32.102 383.333,237.5 379.167,516.666 -2.488,166.648 66.666,254.167 70.833,400 8.538,298.832 -61.277,517.944 -541.667,541.667 -337.5,16.667 -595.278,-240.845 -541.666,-541.667 75,-420.833 129.166,-970.833 633.333,-916.666 z"
         id="path4" /></clipPath><pattern
       id="EMFhbasepattern"
       patternUnits="userSpaceOnUse"
       width="6"
       height="6"
       x="0"
       y="0" /></defs><sodipodi:namedview
     pagecolor="#ffffff"
     bordercolor="#666666"
     borderopacity="1"
     objecttolerance="10"
     gridtolerance="10"
     guidetolerance="10"
     inkscape:pageopacity="0"
     inkscape:pageshadow="2"
     inkscape:window-width="1366"
     inkscape:window-height="705"
     id="namedview28"
     showgrid="false"
     inkscape:zoom="0.25361563"
     inkscape:cx="289.57068"
     inkscape:cy="784.04143"
     inkscape:window-x="-8"
     inkscape:window-y="-8"
     inkscape:window-maximized="1"
     inkscape:current-layer="svg26" /><path
     d="m 657.38,22.306 c 298.795,32.102 383.333,237.5 379.167,516.666 -2.488,166.648 66.666,254.167 70.833,400 8.538,298.832 -61.277,517.944 -541.667,541.667 -337.5,16.667 -595.278,-240.845 -541.666,-541.667 75,-420.833 129.166,-970.833 633.333,-916.666 z"
     style="fill:#f09c96;fill-opacity:1"
     id="path2" /><g
     clip-path="url(#_clip1)"
     id="g9"><path
       d="M 1712.8,-316.667 H -420.53 v 2133.33 H 1712.8 Z m -888.755,216.211 c 298.795,32.102 383.333,237.5 379.166,516.667 -2.487,166.648 66.667,254.167 70.834,400 8.538,298.832 -61.278,517.944 -541.667,541.667 -337.5,16.666 -595.279,-240.845 -541.667,-541.667 75,-420.833 129.167,-970.833 633.334,-916.667 z"
       style="fill-opacity:0.15"
       id="path7" /></g><path
     d="m 657.38,22.306 c 298.795,32.102 383.333,237.5 379.167,516.666 -2.488,166.648 66.666,254.167 70.833,400 8.538,298.832 -61.277,517.944 -541.667,541.667 -337.5,16.667 -595.278,-240.845 -541.666,-541.667 75,-420.833 129.166,-970.833 633.333,-916.666 z"
     style="fill:none;stroke:#512b15;stroke-width:33.33px;stroke-opacity:1"
     id="path11" /><circle
     style="fill:#ec776c;fill-opacity:1;fill-rule:evenodd;stroke:none;stroke-width:21.7473;stroke-linecap:round;stroke-linejoin:round;stroke-miterlimit:1.5;stroke-dasharray:none;stroke-opacity:1;paint-order:fill markers stroke"
     id="path923"
     cx="365.43799"
     cy="558.64374"
     r="50" /><circle
     style="clip-rule:evenodd;fill:#ec776c;fill-opacity:1;fill-rule:evenodd;stroke:none;stroke-width:21.7473;stroke-linecap:round;stroke-linejoin:round;stroke-miterlimit:1.5;stroke-dasharray:none;stroke-opacity:1;paint-order:fill markers stroke"
     id="path923-4"
     cx="847.73956"
     cy="552.01642"
     r="50" /><g
     id="g21"
     style="fill:#512b15;fill-opacity:1"><g
       id="g19"
       style="fill:#512b15;fill-opacity:1"><circle
         cx="419.54599"
         cy="511.21201"
         r="52.879002"
         style="fill:#512b15;fill-opacity:1"
         id="circle15" /><circle
         cx="813.78802"
         cy="511.21201"
         r="52.879002"
         style="fill:#512b15;fill-opacity:1"
         id="circle17" /></g></g><g
     id="g921"
     transform="translate(5.9144619,-76.888005)"
     style="fill:none;fill-opacity:1;stroke:#512b15;stroke-opacity:1"><path
       style="fill:none;stroke:#512b15;stroke-width:20;stroke-linecap:round;stroke-linejoin:miter;stroke-miterlimit:1.5;stroke-dasharray:none;stroke-opacity:1;fill-opacity:1"
       d="m 577.13755,702.60223 c 38.22178,21.17559 62.81145,11.67893 86.43122,0"
       id="path893"
       sodipodi:nodetypes="cc" /><path
       style="fill:none;stroke:#512b15;stroke-width:20;stroke-linecap:round;stroke-linejoin:miter;stroke-miterlimit:1.5;stroke-dasharray:none;stroke-opacity:1;fill-opacity:1"
       d="m 574.68855,689.52768 c 0,0.80449 -0.98575,13.57595 -8.37882,20.20775"
       id="path895"
       sodipodi:nodetypes="cc" /><path
       style="clip-rule:evenodd;fill:none;fill-rule:evenodd;stroke:#512b15;stroke-width:20;stroke-linecap:round;stroke-linejoin:miter;stroke-miterlimit:1.5;stroke-dasharray:none;stroke-opacity:1;fill-opacity:1"
       d="m 666.526,685.35171 c 0,0.80449 0.98575,13.57595 8.37882,20.20775"
       id="path895-3"
       sodipodi:nodetypes="cc" /></g><circle
     style="clip-rule:evenodd;fill:#f9f6f5;fill-opacity:1;fill-rule:evenodd;stroke:none;stroke-width:8.02745;stroke-linecap:round;stroke-linejoin:round;stroke-miterlimit:1.5;stroke-dasharray:none;stroke-opacity:1;paint-order:fill markers stroke"
     id="path923-2"
     cx="437.6702"
     cy="492.8718"
     r="18.456203" /><circle
     style="clip-rule:evenodd;fill:#f9f6f5;fill-opacity:1;fill-rule:evenodd;stroke:none;stroke-width:8.02745;stroke-linecap:round;stroke-linejoin:round;stroke-miterlimit:1.5;stroke-dasharray:none;stroke-opacity:1;paint-order:fill markers stroke"
     id="path923-2-1"
     cx="829.99615"
     cy="490.90036"
     r="18.456203" /></svg>
