<?xml version="1.0" encoding="UTF-8" standalone="no"?>
<svg
   xmlns:dc="http://purl.org/dc/elements/1.1/"
   xmlns:cc="http://creativecommons.org/ns#"
   xmlns:rdf="http://www.w3.org/1999/02/22-rdf-syntax-ns#"
   xmlns:svg="http://www.w3.org/2000/svg"
   xmlns="http://www.w3.org/2000/svg"
   xmlns:sodipodi="http://sodipodi.sourceforge.net/DTD/sodipodi-0.dtd"
   xmlns:inkscape="http://www.inkscape.org/namespaces/inkscape"
   width="100%"
   height="100%"
   viewBox="0 0 1125 1500"
   version="1.1"
   xml:space="preserve"
   style="fill-rule:evenodd;clip-rule:evenodd;stroke-linecap:round;stroke-linejoin:round;stroke-miterlimit:1.5;"
   id="svg26"
   sodipodi:docname="patate_dos.svg"
   inkscape:version="1.0.2-2 (e86c870879, 2021-01-15)"><metadata
     id="metadata32"><rdf:RDF><cc:Work
         rdf:about=""><dc:format>image/svg+xml</dc:format><dc:type
           rdf:resource="http://purl.org/dc/dcmitype/StillImage" /></cc:Work></rdf:RDF></metadata><defs
     id="defs30"><clipPath
       id="_clip1"><path
         d="m 657.38,22.306 c 298.795,32.102 383.333,237.5 379.167,516.666 -2.488,166.648 66.666,254.167 70.833,400 8.538,298.832 -61.277,517.944 -541.667,541.667 -337.5,16.667 -595.278,-240.845 -541.666,-541.667 75,-420.833 129.166,-970.833 633.333,-916.666 z"
         id="path4" /></clipPath><pattern
       id="EMFhbasepattern"
       patternUnits="userSpaceOnUse"
       width="6"
       height="6"
       x="0"
       y="0" /><clipPath
       clipPathUnits="userSpaceOnUse"
       id="clipPath872"><path
         d="m 467.62049,22.306 c -298.795,32.102 -383.332999,237.5 -379.166999,516.666 2.488,166.648 -66.666,254.167 -70.833,400 -8.5380002,298.832 61.277,517.944 541.666999,541.667 337.5,16.667 595.27801,-240.845 541.66601,-541.667 -75,-420.833 -129.16601,-970.833 -633.33301,-916.666 z"
         style="fill:#f09c96;fill-opacity:1"
         id="path874" /></clipPath></defs><sodipodi:namedview
     pagecolor="#ffffff"
     bordercolor="#666666"
     borderopacity="1"
     objecttolerance="10"
     gridtolerance="10"
     guidetolerance="10"
     inkscape:pageopacity="0"
     inkscape:pageshadow="2"
     inkscape:window-width="1366"
     inkscape:window-height="705"
     id="namedview28"
     showgrid="false"
     inkscape:zoom="0.25361563"
     inkscape:cx="289.57068"
     inkscape:cy="784.04143"
     inkscape:window-x="-8"
     inkscape:window-y="-8"
     inkscape:window-maximized="1"
     inkscape:current-layer="svg26"
     inkscape:document-rotation="0" /><path
     d="m 467.62049,22.306 c -298.795,32.102 -383.332999,237.5 -379.166999,516.666 2.488,166.648 -66.666,254.167 -70.833,400 -8.5380002,298.832 61.277,517.944 541.666999,541.667 337.5,16.667 595.27801,-240.845 541.66601,-541.667 -75,-420.833 -129.16601,-970.833 -633.33301,-916.666 z"
     style="fill:#f09c96;fill-opacity:1"
     id="path2" /><path
     d="m 467.65633,22.306 c -298.795,32.102 -383.333001,237.5 -379.167001,516.666 2.488,166.648 -66.666,254.167 -70.833,400 -8.5379998,298.832 61.277,517.944 541.667001,541.667 337.5,16.667 595.27797,-240.845 541.66597,-541.667 -75,-420.833 -129.16597,-970.833 -633.33297,-916.666 z"
     style="fill:none;stroke:#512b15;stroke-width:33.33px;stroke-opacity:1"
     id="path11" /><circle
     style="fill:#ec776c;fill-opacity:1;fill-rule:evenodd;stroke:none;stroke-width:21.7473;stroke-linecap:round;stroke-linejoin:round;stroke-miterlimit:1.5;stroke-dasharray:none;stroke-opacity:1;paint-order:fill markers stroke"
     id="path923"
     cx="866.19574"
     cy="1154.033"
     r="50" /><circle
     style="clip-rule:evenodd;fill:#ec776c;fill-opacity:1;fill-rule:evenodd;stroke:none;stroke-width:10.5999;stroke-linecap:round;stroke-linejoin:round;stroke-miterlimit:1.5;stroke-dasharray:none;stroke-opacity:1;paint-order:fill markers stroke"
     id="path923-4"
     cx="691.99207"
     cy="1208.5217"
     r="24.370665" /><circle
     style="clip-rule:evenodd;fill:#ec776c;fill-opacity:1;fill-rule:evenodd;stroke:none;stroke-width:15.7449;stroke-linecap:round;stroke-linejoin:round;stroke-miterlimit:1.5;stroke-dasharray:none;stroke-opacity:1;paint-order:fill markers stroke"
     id="path923-2-1"
     cx="824.08173"
     cy="1281.4668"
     r="36.199589" /><path
     style="clip-rule:evenodd;fill:#000000;fill-opacity:0.14901961;fill-rule:evenodd;stroke:none;stroke-width:1px;stroke-linecap:butt;stroke-linejoin:miter;stroke-miterlimit:1.5;stroke-opacity:1"
     d="M 688.42708,1473.3206 C -96.224845,1228.8562 345.38828,668.95385 345.38828,668.95385 242.87094,298.31423 467.62049,22.306 467.62049,22.306 L 18.12143,69.6217 -96.22487,1339.2596 223.15606,1694.1273 625.33948,1587.6669 Z"
     id="path848"
     sodipodi:nodetypes="cccccccc"
     clip-path="url(#clipPath872)" /></svg>
